<svg id="visual" viewBox="0 0 900 600" width="900" height="600" xmlns="http://www.w3.org/2000/svg" xmlns:xlink="http://www.w3.org/1999/xlink" version="1.1"><rect x="0" y="0" width="900" height="600" fill="#4E4F83"></rect><path d="M0 414L21.5 409.5C43 405 86 396 128.8 409.2C171.7 422.3 214.3 457.7 257.2 474C300 490.3 343 487.7 385.8 478.8C428.7 470 471.3 455 514.2 437.8C557 420.7 600 401.3 642.8 395.3C685.7 389.3 728.3 396.7 771.2 400.3C814 404 857 404 878.5 404L900 404L900 601L878.5 601C857 601 814 601 771.2 601C728.3 601 685.7 601 642.8 601C600 601 557 601 514.2 601C471.3 601 428.7 601 385.8 601C343 601 300 601 257.2 601C214.3 601 171.7 601 128.8 601C86 601 43 601 21.5 601L0 601Z" fill="#aab4db" stroke-linecap="round" stroke-linejoin="miter"></path></svg>