<svg id="visual" viewBox="0 0 900 600" width="900" height="600" xmlns="http://www.w3.org/2000/svg" xmlns:xlink="http://www.w3.org/1999/xlink" version="1.1"><path d="M0 428L21.5 436C43 444 86 460 128.8 465.5C171.7 471 214.3 466 257.2 449.7C300 433.3 343 405.7 385.8 397.3C428.7 389 471.3 400 514.2 411.2C557 422.3 600 433.7 642.8 441C685.7 448.3 728.3 451.7 771.2 449.8C814 448 857 441 878.5 437.5L900 434L900 601L878.5 601C857 601 814 601 771.2 601C728.3 601 685.7 601 642.8 601C600 601 557 601 514.2 601C471.3 601 428.7 601 385.8 601C343 601 300 601 257.2 601C214.3 601 171.7 601 128.8 601C86 601 43 601 21.5 601L0 601Z" fill="#122C4F" stroke-linecap="round" stroke-linejoin="miter"></path></svg>